<?xml version="1.0" encoding="iso-8859-1"?>
<!-- Generator: Adobe Illustrator 19.0.0, SVG Export Plug-In . SVG Version: 6.00 Build 0)  -->
<svg xmlns="http://www.w3.org/2000/svg" xmlns:xlink="http://www.w3.org/1999/xlink" version="1.1" id="Layer_1" x="0px" y="0px" viewBox="0 0 512 512" style="enable-background:new 0 0 512 512;" xml:space="preserve" width="512px" height="512px">
<g>
	<g>
		<g>
			<path d="M486.4,460.8c-1.476,0-2.944,0.128-4.386,0.384c-5.879-10.607-17.101-17.451-29.747-17.451     c-12.646,0-23.868,6.844-29.747,17.451c-1.442-0.256-2.91-0.384-4.386-0.384c-3.012,0-5.854,0.614-8.533,1.57v-95.437     c0-4.71-3.814-8.533-8.533-8.533c-4.719,0-8.533,3.823-8.533,8.533v128h-17.067v-128c0-4.71-3.814-8.533-8.533-8.533     s-8.533,3.823-8.533,8.533v128H153.6v-128c0-4.71-3.814-8.533-8.533-8.533s-8.533,3.823-8.533,8.533v128h-17.067V460.8     c0-4.71-3.814-8.533-8.533-8.533s-8.533,3.823-8.533,8.533v34.133H68.267v-51.789c30.114-3.789,51.2-27.46,51.2-59.145     c0-50.347-25.651-128-59.733-128S0,333.653,0,384c0,30.583,21.897,55.049,51.2,59.085v51.849H8.533     c-4.719,0-8.533,3.823-8.533,8.533S3.814,512,8.533,512h409.6H486.4c14.114,0,25.6-11.486,25.6-25.6S500.514,460.8,486.4,460.8z      M17.067,384c0-51.43,25.813-110.933,42.667-110.933S102.4,332.57,102.4,384c0,25.122-17.545,42.667-42.667,42.667     C35.405,426.667,17.067,408.329,17.067,384z M486.4,494.933h-68.267c-4.71,0-8.533-3.831-8.533-8.533s3.823-8.533,8.533-8.533     c1.63,0,3.191,0.469,4.625,1.391c2.338,1.51,5.257,1.783,7.834,0.742c2.577-1.05,4.471-3.285,5.111-5.99     c1.801-7.774,8.602-13.21,16.563-13.21c7.962,0,14.763,5.436,16.563,13.21c0.64,2.705,2.534,4.941,5.111,5.99     c2.577,1.041,5.495,0.768,7.834-0.742c5.564-3.584,13.158,0.802,13.158,7.142C494.933,491.102,491.11,494.933,486.4,494.933z" fill="#FFFFFF"/>
			<path d="M51.191,341.333c4.719,0,8.525-3.823,8.525-8.533h0.017c4.719,0,8.533-3.823,8.533-8.533s-3.814-8.533-8.533-8.533     c-9.412,0-17.067,7.654-17.067,17.067C42.667,337.51,46.481,341.333,51.191,341.333z" fill="#FFFFFF"/>
			<path d="M439.731,140.655c-9.992-13.858-23.364-21.188-38.664-21.188c-29.432,0-42.667,19.959-42.667,34.133     c0,37.128,21.385,42.667,34.133,42.667c11.733,0,21.973-9.907,23.1-11.034c3.328-3.319,3.328-8.695,0.008-12.032     c-3.294-3.328-8.695-3.362-12.049-0.06c-2.483,2.44-7.714,6.059-11.059,6.059c-12.126,0-17.067-7.415-17.067-25.6     c0-3.601,4.343-17.067,25.6-17.067c9.728,0,18.074,4.745,24.815,14.106c14.438,20.028,18.807,58.428,9.762,85.598     c-10.095,30.251,9.737,50.543,10.59,51.396c1.664,1.664,3.849,2.5,6.033,2.5c2.185,0,4.369-0.836,6.033-2.5     c3.337-3.337,3.337-8.73,0-12.066c-0.136-0.137-13.261-13.577-6.477-33.937C462.592,209.348,457.276,164.992,439.731,140.655z" fill="#FFFFFF"/>
			<path d="M68.267,358.4c-4.719,0-8.533,3.814-8.533,8.533c0,4.71,3.814,8.525,8.533,8.525v0.009c0,4.71,3.814,8.533,8.533,8.533     s8.533-3.823,8.533-8.533C85.333,366.054,77.679,358.4,68.267,358.4z" fill="#FFFFFF"/>
			<path d="M51.2,384.009V384c0-4.71-3.814-8.533-8.533-8.533s-8.533,3.823-8.533,8.533c0,9.412,7.654,17.067,17.067,17.067     c4.719,0,8.533-3.814,8.533-8.533C59.733,387.823,55.919,384.009,51.2,384.009z" fill="#FFFFFF"/>
			<path d="M213.333,102.4H93.867c-4.719,0-8.533,3.823-8.533,8.533s3.814,8.533,8.533,8.533h119.467     c4.719,0,8.533-3.823,8.533-8.533S218.052,102.4,213.333,102.4z" fill="#FFFFFF"/>
			<path d="M93.867,187.733h68.267c4.719,0,8.533-3.823,8.533-8.533s-3.814-8.533-8.533-8.533H93.867     c-4.719,0-8.533,3.823-8.533,8.533S89.148,187.733,93.867,187.733z" fill="#FFFFFF"/>
			<path d="M93.867,153.6H179.2c4.719,0,8.533-3.823,8.533-8.533c0-4.71-3.814-8.533-8.533-8.533H93.867     c-4.719,0-8.533,3.823-8.533,8.533C85.333,149.777,89.148,153.6,93.867,153.6z" fill="#FFFFFF"/>
			<path d="M309.154,255.027c-4.395,3.516-8.934,7.159-14.882,10.726c-39.518,23.706-146.842,7.569-147.908,7.415     c-4.634-0.717-9.011,2.475-9.728,7.134c-0.717,4.659,2.475,9.011,7.134,9.728c2.586,0.401,37.632,5.675,75.955,5.675     c30.66,0,63.428-3.379,83.337-15.326c6.921-4.156,12.151-8.346,16.759-12.041c9.6-7.697,15.403-12.339,30.046-12.339     c25.242,0,56.192-7.962,67.371-30.319c2.108-4.216,0.393-9.335-3.823-11.452c-4.215-2.099-9.335-0.393-11.452,3.823     c-6.238,12.493-27.179,20.881-52.096,20.881C329.225,238.933,319.471,246.75,309.154,255.027z" fill="#FFFFFF"/>
			<path d="M469.333,0H42.667C19.14,0,0,19.14,0,42.667v221.867c0,4.71,3.814,8.533,8.533,8.533s8.533-3.823,8.533-8.533V42.667     c0-14.114,11.486-25.6,25.6-25.6h76.8v17.067h-25.6c-4.719,0-8.533,3.823-8.533,8.533c0,4.71,3.814,8.533,8.533,8.533h68.267     c4.719,0,8.533-3.823,8.533-8.533c0-4.71-3.814-8.533-8.533-8.533h-25.6V17.067h238.933v17.067h-25.6     c-4.719,0-8.533,3.823-8.533,8.533c0,4.71,3.814,8.533,8.533,8.533h68.267c4.719,0,8.533-3.823,8.533-8.533     c0-4.71-3.814-8.533-8.533-8.533h-25.6V17.067h76.8c14.114,0,25.6,11.486,25.6,25.6v256c0,14.114-11.486,25.6-25.6,25.6h-332.8     c-4.719,0-8.533,3.823-8.533,8.533c0,4.71,3.814,8.533,8.533,8.533h332.8c23.526,0,42.667-19.14,42.667-42.667v-256     C512,19.14,492.86,0,469.333,0z" fill="#FFFFFF"/>
			<path d="M247.467,136.533h-34.133c-4.719,0-8.533,3.823-8.533,8.533c0,4.71,3.814,8.533,8.533,8.533h34.133     c4.719,0,8.533-3.823,8.533-8.533C256,140.356,252.186,136.533,247.467,136.533z" fill="#FFFFFF"/>
			<path d="M337.519,163.029c-14.191,7.1-15.829,19.191-16.905,27.196c-0.512,3.814-0.964,7.117-2.381,8.542     c-5.845,5.854-20.932,5.12-42.47-2.065c-27.571-9.148-116.89,34.321-134.511,43.127c-4.215,2.116-5.931,7.236-3.823,11.452     c1.502,2.987,4.514,4.719,7.646,4.719c1.28,0,2.586-0.29,3.806-0.896c41.199-20.608,106.155-47.351,121.489-42.206     c29.21,9.737,48.802,9.054,59.93-2.065c5.495-5.495,6.46-12.612,7.228-18.33c1.016-7.526,1.766-11.273,7.62-14.199     c4.215-2.116,5.931-7.236,3.823-11.452C346.846,162.628,341.734,160.922,337.519,163.029z" fill="#FFFFFF"/>
		</g>
	</g>
</g>
<g>
</g>
<g>
</g>
<g>
</g>
<g>
</g>
<g>
</g>
<g>
</g>
<g>
</g>
<g>
</g>
<g>
</g>
<g>
</g>
<g>
</g>
<g>
</g>
<g>
</g>
<g>
</g>
<g>
</g>
</svg>
