<?xml version="1.0" encoding="iso-8859-1"?>
<!-- Generator: Adobe Illustrator 19.0.0, SVG Export Plug-In . SVG Version: 6.00 Build 0)  -->
<svg xmlns="http://www.w3.org/2000/svg" xmlns:xlink="http://www.w3.org/1999/xlink" version="1.1" id="Capa_1" x="0px" y="0px" viewBox="0 0 511.924 511.924" style="enable-background:new 0 0 511.924 511.924;" xml:space="preserve" width="512px" height="512px">
<g>
	<g>
		<path d="M256.186,199.971h-0.078c-2.21,0-3.96,1.789-3.96,3.999c0,2.211,1.832,4,4.039,4c2.211,0,3.999-1.789,3.998-4    C260.186,201.76,258.397,199.971,256.186,199.971z" fill="#FFFFFF"/>
	</g>
</g>
<g>
	<g>
		<path d="M256.186,143.979h-0.078c-2.21,0-3.96,1.789-3.96,4c0,2.21,1.832,3.999,4.039,3.999c2.211,0,3.999-1.789,3.998-3.999    C260.186,145.768,258.397,143.979,256.186,143.979z" fill="#FFFFFF"/>
	</g>
</g>
<g>
	<g>
		<path d="M270.193,196.221h-0.094c-2.203,0-3.953,1.789-3.953,4c0,2.21,1.828,3.999,4.047,3.999c2.203,0,3.999-1.789,3.999-3.999    C274.191,198.01,272.395,196.221,270.193,196.221z" fill="#FFFFFF"/>
	</g>
</g>
<g>
	<g>
		<path d="M242.189,147.729h-0.078c-2.21,0-3.96,1.789-3.96,3.999c0,2.211,1.832,4,4.039,4c2.211,0,3.999-1.789,3.998-4    C246.188,149.518,244.4,147.729,242.189,147.729z" fill="#FFFFFF"/>
	</g>
</g>
<g>
	<g>
		<path d="M280.441,185.973h-0.078c-2.203,0-3.952,1.789-3.952,3.999c0,2.211,1.827,4,4.03,4s4-1.789,4-4    C284.441,187.762,282.645,185.973,280.441,185.973z" fill="#FFFFFF"/>
	</g>
</g>
<g>
	<g>
		<path d="M231.939,157.977h-0.078c-2.21,0-3.96,1.789-3.96,4c0,2.21,1.832,3.999,4.039,3.999c2.21,0,4-1.789,3.999-3.999    C235.939,159.766,234.15,157.977,231.939,157.977z" fill="#FFFFFF"/>
	</g>
</g>
<g>
	<g>
		<path d="M284.191,171.975h-0.078c-2.203,0-3.953,1.789-3.953,4c0,2.21,1.828,3.999,4.031,3.999c2.202,0,3.999-1.789,3.999-3.999    C288.191,173.764,286.394,171.975,284.191,171.975z" fill="#FFFFFF"/>
	</g>
</g>
<g>
	<g>
		<path d="M228.191,171.975h-0.078c-2.21,0-3.96,1.789-3.96,4c0,2.21,1.831,3.999,4.038,3.999c2.21,0,3.999-1.789,4-3.999    C232.191,173.764,230.402,171.975,228.191,171.975z" fill="#FFFFFF"/>
	</g>
</g>
<g>
	<g>
		<path d="M280.441,157.977h-0.078c-2.203,0-3.952,1.789-3.952,4c0,2.21,1.827,3.999,4.03,3.999s4-1.789,4-3.999    C284.441,159.766,282.645,157.977,280.441,157.977z" fill="#FFFFFF"/>
	</g>
</g>
<g>
	<g>
		<path d="M231.939,185.973h-0.078c-2.21,0-3.96,1.789-3.96,3.999c0,2.211,1.832,4,4.039,4c2.21,0,4-1.789,3.999-4    C235.939,187.762,234.15,185.973,231.939,185.973z" fill="#FFFFFF"/>
	</g>
</g>
<g>
	<g>
		<path d="M270.193,147.729h-0.094c-2.203,0-3.953,1.789-3.953,3.999c0,2.211,1.828,4,4.047,4c2.203,0,3.999-1.789,3.999-4    C274.191,149.518,272.395,147.729,270.193,147.729z" fill="#FFFFFF"/>
	</g>
</g>
<g>
	<g>
		<path d="M242.189,196.221h-0.078c-2.21,0-3.96,1.789-3.96,4c0,2.21,1.832,3.999,4.039,3.999c2.211,0,3.999-1.789,3.998-3.999    C246.188,198.01,244.4,196.221,242.189,196.221z" fill="#FFFFFF"/>
	</g>
</g>
<g>
	<g>
		<path d="M255.949,31.995c-79.391,0-143.979,64.588-143.979,143.979c0,79.39,64.588,143.979,143.979,143.979    s143.991-64.589,143.99-143.979C399.939,96.583,335.34,31.995,255.949,31.995z M255.949,311.953    c-74.981,0-135.979-60.999-135.979-135.979c0-74.981,60.998-135.98,135.979-135.98c74.985,0,135.992,60.999,135.991,135.98    C391.939,250.954,330.933,311.953,255.949,311.953z" fill="#FFFFFF"/>
	</g>
</g>
<g>
	<g>
		<path d="M255.949,47.994c-70.567,0-127.981,57.413-127.981,127.981c0,70.567,57.414,127.98,127.981,127.98    c70.579,0,127.993-57.413,127.992-127.98C383.941,105.407,326.527,47.994,255.949,47.994z M255.949,295.955    c-66.158,0-119.982-53.824-119.982-119.981c0-66.158,53.824-119.982,119.982-119.982c66.159,0,119.994,53.824,119.994,119.983    C375.943,242.132,322.106,295.955,255.949,295.955z" fill="#FFFFFF"/>
	</g>
</g>
<g>
	<g>
		<path d="M257.957,67.639c-1.242-0.719-2.778-0.719-4.012,0c-18.501,10.716-29.991,30.604-29.991,51.898    c0,8.847,1.89,17.373,5.62,25.34c0.68,1.453,2.121,2.305,3.624,2.305c0.567,0,1.145-0.121,1.69-0.381    c2-0.933,2.864-3.316,1.926-5.315c-3.227-6.897-4.863-14.283-4.863-21.95c0-17.669,9.136-34.222,23.997-43.755    c14.869,9.541,24.008,26.094,24.008,43.755c0,7.605-1.625,14.94-4.796,21.806c-0.937,2.004-0.062,4.382,1.938,5.312    c2,0.942,4.39,0.055,5.312-1.945c3.671-7.928,5.546-16.396,5.546-25.172C287.956,98.251,276.458,78.364,257.957,67.639z" fill="#FFFFFF"/>
	</g>
</g>
<g>
	<g>
		<path d="M282.379,207.185c-0.937-2.012-3.344-2.852-5.327-1.934c-2,0.937-2.86,3.316-1.922,5.315    c3.202,6.855,4.827,14.205,4.827,21.845c0,17.661-9.139,34.214-24.008,43.751c-14.862-9.529-23.997-26.082-23.997-43.751    c0-7.682,1.644-15.08,4.886-21.993c0.937-1.999,0.078-4.381-1.922-5.319c-2.011-0.945-4.385-0.074-5.319,1.922    c-3.746,7.984-5.644,16.525-5.644,25.391c0,21.294,11.49,41.181,29.991,51.898c0.617,0.359,1.313,0.539,2.004,0.539    c0.692,0,1.387-0.18,2.009-0.539c18.501-10.724,29.999-30.612,29.999-51.898C287.957,223.592,286.082,215.106,282.379,207.185z" fill="#FFFFFF"/>
	</g>
</g>
<g>
	<g>
		<path d="M252.608,135.339c-2.991-8.268-7.678-15.634-13.939-21.903c-15.044-15.056-37.241-20.981-57.909-15.49    c-1.386,0.371-2.468,1.453-2.839,2.84c-5.495,20.661,0.442,42.852,15.498,57.913c6.296,6.285,13.7,10.991,22.004,13.979    c0.449,0.16,0.906,0.234,1.355,0.234c1.641,0,3.176-1.015,3.763-2.646c0.746-2.081-0.332-4.37-2.409-5.12    c-7.19-2.585-13.603-6.659-19.06-12.107c-12.494-12.494-17.74-30.663-13.974-47.915c17.247-3.776,35.424,1.477,47.911,13.967    c5.425,5.429,9.487,11.811,12.076,18.966c0.754,2.078,3.059,3.16,5.121,2.402C252.285,139.709,253.358,137.412,252.608,135.339z" fill="#FFFFFF"/>
	</g>
</g>
<g>
	<g>
		<path d="M318.497,193.254c-6.202-6.195-13.482-10.854-21.668-13.854c-2.047-0.754-4.375,0.301-5.141,2.379    c-0.75,2.073,0.313,4.37,2.391,5.128c7.077,2.597,13.389,6.636,18.763,12.002c12.483,12.494,17.732,30.663,13.967,47.915    c-17.294,3.756-35.433-1.485-47.915-13.979c-5.406-5.397-9.467-11.748-12.061-18.876c-0.766-2.075-3.058-3.153-5.128-2.391    c-2.079,0.754-3.148,3.051-2.391,5.124c3,8.238,7.691,15.573,13.924,21.802c11.343,11.346,26.731,17.513,42.463,17.513    c5.156,0,10.342-0.66,15.45-2.014c1.375-0.371,2.469-1.453,2.828-2.84C339.478,230.502,333.543,208.315,318.497,193.254z" fill="#FFFFFF"/>
	</g>
</g>
<g>
	<g>
		<path d="M221.532,195.07c-6.917,3.253-14.322,4.901-22.012,4.901c-17.673,0-34.229-9.136-43.763-23.996    c9.538-14.865,26.082-24.005,43.744-24.005c0.004,0,0.016,0,0.02,0c7.698,0,15.115,1.652,22.036,4.909    c2,0.934,4.378,0.082,5.323-1.917c0.937-2,0.082-4.383-1.917-5.323c-7.995-3.762-16.557-5.668-25.442-5.668    c-0.008,0-0.012,0-0.02,0c-21.286,0-41.166,11.495-51.887,30c-0.719,1.238-0.719,2.769,0,4.007    c10.717,18.501,30.609,29.992,51.906,29.992c8.878,0,17.427-1.906,25.418-5.66c1.995-0.94,2.855-3.323,1.917-5.323    C225.913,194.984,223.52,194.129,221.532,195.07z" fill="#FFFFFF"/>
	</g>
</g>
<g>
	<g>
		<path d="M364.288,173.97c-10.717-18.497-30.589-29.992-51.883-30c-8.764,0-17.231,1.859-25.152,5.527    c-1.999,0.925-2.874,3.304-1.952,5.308c0.937,2.007,3.312,2.882,5.311,1.948c6.859-3.175,14.201-4.784,21.794-4.784    c17.653,0.008,34.214,9.148,43.743,24.005c-9.53,14.86-26.09,23.996-43.759,23.996c-7.609,0-14.919-1.605-21.763-4.776    c-1.968-0.938-4.374-0.059-5.296,1.944c-0.936,2.004-0.061,4.383,1.938,5.312c7.89,3.665,16.341,5.52,25.121,5.52    c21.294,0,41.181-11.491,51.898-29.993C365.007,176.739,365.007,175.208,364.288,173.97z" fill="#FFFFFF"/>
	</g>
</g>
<g>
	<g>
		<path d="M250.202,211.528c-2.079-0.747-4.367,0.32-5.125,2.398c-2.59,7.136-6.648,13.502-12.061,18.915    c-12.499,12.502-30.664,17.751-47.907,13.982c-3.777-17.26,1.468-35.433,13.974-47.923c5.441-5.441,11.847-9.515,19.041-12.104    c2.077-0.746,3.155-3.039,2.405-5.116c-0.745-2.074-3.042-3.187-5.116-2.406c-8.308,2.989-15.705,7.691-21.985,13.971    c-15.068,15.053-21.005,37.244-15.494,57.921c0.367,1.383,1.448,2.465,2.835,2.836c5.093,1.355,10.276,2.015,15.427,2.015    c15.737,0,31.132-6.171,42.476-17.52c6.249-6.249,10.932-13.596,13.928-21.845C253.353,214.579,252.28,212.282,250.202,211.528z" fill="#FFFFFF"/>
	</g>
</g>
<g>
	<g>
		<path d="M333.979,100.779c-0.36-1.387-1.453-2.469-2.844-2.84c-20.668-5.495-42.852,0.449-57.897,15.498    c-6.249,6.237-10.924,13.568-13.916,21.786c-0.756,2.073,0.313,4.37,2.391,5.124c2.066,0.765,4.37-0.317,5.12-2.391    c2.594-7.108,6.656-13.455,12.061-18.864c12.482-12.491,30.668-17.72,47.915-13.975c3.765,17.252-1.484,35.425-13.982,47.919    c-5.374,5.362-11.685,9.397-18.747,11.99c-2.063,0.762-3.125,3.059-2.375,5.132c0.61,1.617,2.125,2.621,3.766,2.621    c0.453,0,0.922-0.078,1.373-0.245c8.155-2.991,15.419-7.648,21.637-13.838C333.541,143.635,339.478,121.44,333.979,100.779z" fill="#FFFFFF"/>
	</g>
</g>
<g>
	<g>
		<path d="M255.949,159.977c-8.823,0-15.998,7.175-15.998,15.998c0,8.822,7.175,15.997,15.998,15.997s15.994-7.175,15.994-15.997    C271.942,167.152,264.77,159.977,255.949,159.977z M255.949,183.973c-4.41,0-7.999-3.589-7.999-7.998    c0-4.41,3.589-7.999,7.999-7.999c4.41,0,7.999,3.589,7.999,7.999C263.947,180.384,260.358,183.973,255.949,183.973z" fill="#FFFFFF"/>
	</g>
</g>
<g>
	<g>
		<path d="M255.949,31.996c-2.211,0-4,1.788-4,3.999v3.999c0,2.211,1.789,4,4,4s3.999-1.789,3.999-4v-3.999    C259.947,33.784,258.16,31.996,255.949,31.996z" fill="#FFFFFF"/>
	</g>
</g>
<g>
	<g>
		<path d="M255.949,307.955c-2.211,0-4,1.788-4,3.999v3.999c0,2.211,1.789,4,4,4s3.999-1.789,3.999-4v-3.999    C259.947,309.743,258.16,307.955,255.949,307.955z" fill="#FFFFFF"/>
	</g>
</g>
<g>
	<g>
		<path d="M236.272,41.361l-0.695-3.937c-0.383-2.176-2.48-3.656-4.632-3.242c-2.176,0.383-3.629,2.457-3.242,4.633l0.695,3.937    c0.34,1.942,2.027,3.304,3.933,3.304c0.23,0,0.464-0.02,0.699-0.063C235.207,45.611,236.66,43.537,236.272,41.361z" fill="#FFFFFF"/>
	</g>
</g>
<g>
	<g>
		<path d="M284.207,313.124l-0.703-3.937c-0.391-2.178-2.532-3.608-4.641-3.233c-2.171,0.391-3.624,2.468-3.233,4.64l0.703,3.937    c0.344,1.938,2.03,3.297,3.921,3.297c0.234,0,0.484-0.015,0.719-0.063C283.145,317.374,284.598,315.296,284.207,313.124z" fill="#FFFFFF"/>
	</g>
</g>
<g>
	<g>
		<path d="M213.199,46.829l-1.367-3.757c-0.754-2.075-3.055-3.153-5.125-2.391c-2.078,0.754-3.148,3.051-2.39,5.124l1.367,3.758    c0.59,1.625,2.124,2.632,3.757,2.632c0.453,0,0.918-0.077,1.368-0.241C212.887,51.2,213.955,48.903,213.199,46.829z" fill="#FFFFFF"/>
	</g>
</g>
<g>
	<g>
		<path d="M307.592,306.158l-1.359-3.766c-0.766-2.078-3.03-3.155-5.124-2.406c-2.078,0.75-3.155,3.047-2.406,5.125l1.359,3.765    c0.594,1.625,2.125,2.641,3.765,2.641c0.453,0,0.906-0.078,1.359-0.235C307.264,310.532,308.342,308.235,307.592,306.158z" fill="#FFFFFF"/>
	</g>
</g>
<g>
	<g>
		<path d="M191.42,56.207l-2-3.453c-1.11-1.905-3.554-2.561-5.464-1.456c-1.914,1.105-2.566,3.554-1.457,5.464l2,3.452    c0.742,1.281,2.086,1.996,3.464,1.996c0.68,0,1.371-0.172,2-0.539C191.876,60.565,192.528,58.117,191.42,56.207z" fill="#FFFFFF"/>
	</g>
</g>
<g>
	<g>
		<path d="M329.418,295.206l-1.999-3.468c-1.11-1.914-3.562-2.571-5.468-1.469c-1.922,1.11-2.578,3.555-1.469,5.468l2,3.469    c0.735,1.28,2.077,1.999,3.468,1.999c0.672,0,1.36-0.172,2-0.531C329.855,299.565,330.512,297.12,329.418,295.206z" fill="#FFFFFF"/>
	</g>
</g>
<g>
	<g>
		<path d="M171.603,69.236l-2.57-3.055c-1.426-1.69-3.941-1.909-5.636-0.488c-1.691,1.426-1.91,3.949-0.488,5.637l2.57,3.054    c0.793,0.942,1.925,1.426,3.065,1.426c0.906,0,1.82-0.309,2.571-0.938C172.806,73.446,173.024,70.924,171.603,69.236z" fill="#FFFFFF"/>
	</g>
</g>
<g>
	<g>
		<path d="M348.993,280.646l-2.562-3.062c-1.422-1.703-3.938-1.938-5.64-0.5c-1.688,1.414-1.906,3.937-0.5,5.624l2.562,3.062    c0.797,0.954,1.937,1.437,3.078,1.437c0.906,0,1.812-0.304,2.562-0.937C350.181,284.856,350.415,282.333,348.993,280.646z" fill="#FFFFFF"/>
	</g>
</g>
<g>
	<g>
		<path d="M154.348,85.499l-3.054-2.562c-1.692-1.414-4.207-1.195-5.636,0.496c-1.418,1.691-1.195,4.214,0.496,5.636l3.054,2.562    c0.75,0.625,1.66,0.934,2.566,0.934c1.144,0,2.276-0.485,3.07-1.429C156.262,89.444,156.038,86.921,154.348,85.499z" fill="#FFFFFF"/>
	</g>
</g>
<g>
	<g>
		<path d="M365.773,262.902l-3.062-2.577c-1.688-1.422-4.219-1.211-5.641,0.484c-1.422,1.687-1.204,4.214,0.484,5.636l3.062,2.577    c0.75,0.626,1.656,0.938,2.578,0.938c1.14,0,2.265-0.484,3.063-1.421C367.679,266.851,367.461,264.32,365.773,262.902z" fill="#FFFFFF"/>
	</g>
</g>
<g>
	<g>
		<path d="M140.186,104.519l-3.453-1.991c-1.929-1.101-4.362-0.453-5.464,1.465c-1.105,1.913-0.449,4.359,1.465,5.464l3.452,1.991    c0.633,0.363,1.316,0.535,1.996,0.535c1.383,0,2.726-0.718,3.468-1.999C142.754,108.07,142.098,105.624,140.186,104.519z" fill="#FFFFFF"/>
	</g>
</g>
<g>
	<g>
		<path d="M379.191,242.507l-3.468-1.999c-1.938-1.105-4.36-0.449-5.469,1.468c-1.109,1.91-0.453,4.359,1.469,5.461l3.469,1.999    c0.625,0.363,1.312,0.535,1.999,0.535c1.375,0,2.719-0.719,3.469-2.004C381.754,246.058,381.098,243.609,379.191,242.507z" fill="#FFFFFF"/>
	</g>
</g>
<g>
	<g>
		<path d="M129.533,125.705l-3.749-1.359c-2.083-0.73-4.371,0.32-5.125,2.398c-0.749,2.078,0.32,4.37,2.398,5.124l3.75,1.359    c0.449,0.16,0.91,0.238,1.363,0.238c1.637,0,3.172-1.012,3.761-2.636C132.681,128.752,131.611,126.459,129.533,125.705z" fill="#FFFFFF"/>
	</g>
</g>
<g>
	<g>
		<path d="M388.862,220.101l-3.75-1.367c-2.078-0.758-4.358,0.317-5.124,2.387c-0.75,2.077,0.313,4.37,2.39,5.128l3.75,1.367    c0.453,0.164,0.922,0.242,1.375,0.242c1.625,0,3.155-1.008,3.749-2.629C392.017,223.151,390.939,220.859,388.862,220.101z" fill="#FFFFFF"/>
	</g>
</g>
<g>
	<g>
		<path d="M122.743,148.432l-3.929-0.703c-2.176-0.414-4.253,1.054-4.64,3.233c-0.39,2.172,1.059,4.25,3.234,4.641l3.929,0.703    c0.238,0.042,0.473,0.062,0.707,0.062c1.901,0,3.585-1.359,3.933-3.296C126.368,150.9,124.918,148.823,122.743,148.432z" fill="#FFFFFF"/>
	</g>
</g>
<g>
	<g>
		<path d="M394.504,196.346l-3.922-0.695c-2.124-0.39-4.233,1.062-4.624,3.238c-0.391,2.176,1.062,4.253,3.234,4.636l3.921,0.695    c0.234,0.042,0.469,0.062,0.703,0.062c1.905,0,3.592-1.363,3.937-3.299C398.144,198.807,396.691,196.729,394.504,196.346z" fill="#FFFFFF"/>
	</g>
</g>
<g>
	<g>
		<path d="M119.978,171.975h-3.992c-2.21,0-3.999,1.789-3.999,4c0,2.21,1.789,3.999,3.999,3.999h3.992    c2.21,0,3.999-1.789,3.999-3.999C123.976,173.764,122.187,171.975,119.978,171.975z" fill="#FFFFFF"/>
	</g>
</g>
<g>
	<g>
		<path d="M395.954,171.975h-3.999c-2.219,0-3.999,1.789-3.999,4c0,2.21,1.78,3.999,3.999,3.999h3.999c2.203,0,4-1.789,4-3.999    C399.954,173.764,398.158,171.975,395.954,171.975z" fill="#FFFFFF"/>
	</g>
</g>
<g>
	<g>
		<path d="M125.988,198.907c-0.382-2.176-2.449-3.64-4.628-3.254l-3.937,0.688c-2.175,0.383-3.631,2.453-3.253,4.629    c0.34,1.945,2.031,3.312,3.937,3.312c0.226,0,0.46-0.019,0.69-0.059l3.937-0.688C124.91,203.152,126.366,201.083,125.988,198.907z    " fill="#FFFFFF"/>
	</g>
</g>
<g>
	<g>
		<path d="M397.768,150.978c-0.375-2.183-2.516-3.608-4.624-3.253l-3.937,0.688c-2.188,0.383-3.641,2.452-3.25,4.628    c0.328,1.945,2.016,3.312,3.921,3.312c0.234,0,0.469-0.02,0.703-0.058l3.938-0.688    C396.69,155.224,398.143,153.154,397.768,150.978z" fill="#FFFFFF"/>
	</g>
</g>
<g>
	<g>
		<path d="M131.949,221.12c-0.754-2.078-3.051-3.128-5.124-2.398l-3.766,1.367c-2.078,0.754-3.151,3.05-2.398,5.124    c0.594,1.629,2.124,2.637,3.761,2.637c0.453,0,0.914-0.078,1.364-0.239l3.765-1.367    C131.629,225.49,132.702,223.193,131.949,221.12z" fill="#FFFFFF"/>
	</g>
</g>
<g>
	<g>
		<path d="M391.283,126.742c-0.766-2.086-3.046-3.155-5.124-2.406l-3.75,1.352c-2.077,0.746-3.155,3.039-2.405,5.116    c0.594,1.633,2.124,2.645,3.765,2.645c0.453,0,0.906-0.074,1.359-0.239l3.75-1.352    C390.955,131.112,392.033,128.82,391.283,126.742z" fill="#FFFFFF"/>
	</g>
</g>
<g>
	<g>
		<path d="M141.665,241.968c-1.097-1.913-3.538-2.577-5.46-1.468l-3.468,1.999c-1.914,1.102-2.574,3.551-1.469,5.46    c0.738,1.285,2.086,2.004,3.468,2.004c0.675,0,1.363-0.172,1.992-0.535l3.469-1.999    C142.111,246.327,142.77,243.878,141.665,241.968z" fill="#FFFFFF"/>
	</g>
</g>
<g>
	<g>
		<path d="M380.676,103.994c-1.11-1.93-3.578-2.567-5.468-1.477l-3.453,1.983c-1.907,1.102-2.578,3.547-1.469,5.461    c0.735,1.288,2.078,2.007,3.469,2.007c0.672,0,1.359-0.172,1.985-0.531l3.452-1.983    C381.114,108.352,381.77,105.907,380.676,103.994z" fill="#FFFFFF"/>
	</g>
</g>
<g>
	<g>
		<path d="M154.855,260.805c-1.414-1.691-3.925-1.906-5.632-0.492l-3.062,2.569c-1.691,1.422-1.914,3.938-0.492,5.633    c0.789,0.945,1.921,1.429,3.065,1.429c0.907,0,1.817-0.312,2.567-0.938l3.062-2.569    C156.053,265.023,156.275,262.495,154.855,260.805z" fill="#FFFFFF"/>
	</g>
</g>
<g>
	<g>
		<path d="M366.273,83.421c-1.438-1.703-3.937-1.922-5.64-0.5l-3.062,2.562c-1.688,1.418-1.906,3.938-0.5,5.633    c0.797,0.945,1.937,1.433,3.078,1.433c0.906,0,1.812-0.305,2.562-0.934l3.062-2.562C367.461,87.635,367.695,85.115,366.273,83.421    z" fill="#FFFFFF"/>
	</g>
</g>
<g>
	<g>
		<path d="M171.126,277.068c-1.692-1.422-4.215-1.203-5.632,0.492l-2.57,3.062c-1.422,1.694-1.199,4.21,0.492,5.632    c0.75,0.625,1.66,0.937,2.566,0.937c1.144,0,2.276-0.483,3.066-1.429l2.57-3.062C173.04,281.006,172.818,278.49,171.126,277.068z" fill="#FFFFFF"/>
	</g>
</g>
<g>
	<g>
		<path d="M348.511,65.658c-1.688-1.413-4.203-1.194-5.641,0.5l-2.562,3.062c-1.406,1.695-1.188,4.214,0.5,5.632    c0.75,0.629,1.671,0.934,2.577,0.934c1.14,0,2.266-0.488,3.064-1.433l2.562-3.062C350.433,69.596,350.199,67.076,348.511,65.658z" fill="#FFFFFF"/>
	</g>
</g>
<g>
	<g>
		<path d="M189.97,290.254c-1.91-1.109-4.362-0.437-5.46,1.469l-2,3.468c-1.105,1.914-0.445,4.36,1.469,5.468    c0.629,0.359,1.317,0.531,1.992,0.531c1.383,0,2.73-0.719,3.468-1.999l2-3.469C192.543,293.809,191.884,291.363,189.97,290.254z" fill="#FFFFFF"/>
	</g>
</g>
<g>
	<g>
		<path d="M327.965,51.267c-1.906-1.106-4.359-0.469-5.468,1.456l-2,3.453c-1.109,1.91-0.453,4.359,1.453,5.464    c0.641,0.367,1.328,0.539,2.016,0.539c1.374,0,2.718-0.715,3.452-1.996l1.999-3.452C330.527,54.821,329.871,52.371,327.965,51.267    z" fill="#FFFFFF"/>
	</g>
</g>
<g>
	<g>
		<path d="M210.819,299.972c-2.075-0.727-4.367,0.319-5.125,2.405l-1.367,3.766c-0.754,2.069,0.32,4.366,2.398,5.124    c0.449,0.156,0.91,0.234,1.363,0.234c1.637,0,3.168-1.008,3.762-2.64l1.367-3.765C213.97,303.026,212.897,300.729,210.819,299.972    z" fill="#FFFFFF"/>
	</g>
</g>
<g>
	<g>
		<path d="M305.202,40.655c-2.046-0.731-4.374,0.324-5.124,2.398l-1.359,3.749c-0.749,2.078,0.328,4.371,2.406,5.125    c0.437,0.16,0.906,0.238,1.359,0.238c1.624,0,3.171-1.012,3.75-2.636l1.359-3.75C308.358,43.702,307.28,41.409,305.202,40.655z" fill="#FFFFFF"/>
	</g>
</g>
<g>
	<g>
		<path d="M233.046,305.933c-2.191-0.399-4.253,1.062-4.632,3.241l-0.695,3.944c-0.387,2.18,1.066,4.25,3.242,4.633    c0.235,0.046,0.469,0.062,0.699,0.062c1.906,0,3.593-1.36,3.933-3.304l0.695-3.944    C236.673,308.393,235.22,306.316,233.046,305.933z" fill="#FFFFFF"/>
	</g>
</g>
<g>
	<g>
		<path d="M280.988,34.167c-2.141-0.407-4.265,1.058-4.64,3.23l-0.703,3.921c-0.391,2.176,1.046,4.254,3.233,4.644    c0.234,0.042,0.469,0.062,0.703,0.062c1.906,0,3.594-1.358,3.938-3.291l0.703-3.921C284.613,36.636,283.16,34.558,280.988,34.167z    " fill="#FFFFFF"/>
	</g>
</g>
<g>
	<g>
		<path d="M255.949,367.946c-2.211,0-4,1.789-4,4v73.324c0,2.211,1.789,4,4,4s3.999-1.789,3.999-4v-73.324    C259.947,369.735,258.16,367.946,255.949,367.946z" fill="#FFFFFF"/>
	</g>
</g>
<g>
	<g>
		<path d="M255.949,383.944c-13.233,0-23.997,10.764-23.997,23.996c0,1.039,6.331,103.984,23.997,103.984    c17.665,0,23.993-102.945,23.992-103.984C279.941,394.708,269.178,383.944,255.949,383.944z M255.949,503.269    c-7.456-9.952-15.998-79.519-15.998-95.33c0-8.826,7.175-15.998,15.998-15.998s15.994,7.172,15.994,15.998    C271.942,423.749,263.405,493.317,255.949,503.269z" fill="#FFFFFF"/>
	</g>
</g>
<g>
	<g>
		<path d="M255.949,343.949c-8.823,0-15.998,7.171-15.998,15.998c0,8.826,7.175,15.997,15.998,15.997s15.994-7.17,15.994-15.997    C271.942,351.12,264.77,343.949,255.949,343.949z M255.949,367.945c-4.41,0-7.999-3.593-7.999-7.998    c0-4.406,3.589-7.999,7.999-7.999c4.41,0,7.999,3.593,7.999,7.999C263.947,364.352,260.358,367.945,255.949,367.945z" fill="#FFFFFF"/>
	</g>
</g>
<g>
	<g>
		<path d="M255.949,325.952c-2.211,0-4,1.788-4,3.999v17.997c0,2.211,1.789,4,4,4s3.999-1.789,3.999-4v-17.997    C259.947,327.74,258.16,325.952,255.949,325.952z" fill="#FFFFFF"/>
	</g>
</g>
<g>
	<g>
		<path d="M255.949,0c-8.823,0-15.998,7.175-15.998,15.998s7.175,15.998,15.998,15.998s15.994-7.175,15.994-15.998    S264.77,0,255.949,0z M255.949,23.997c-4.41,0-7.999-3.59-7.999-7.999s3.589-7.999,7.999-7.999c4.41,0,7.999,3.59,7.999,7.999    S260.358,23.997,255.949,23.997z" fill="#FFFFFF"/>
	</g>
</g>
<g>
	<g>
		<path d="M187.959,311.954c-2.21,0-3.999,1.788-3.999,3.999v27.996c0,2.211,1.789,3.999,3.999,3.999c2.211,0,4-1.788,4-3.999    v-27.996C191.959,313.742,190.17,311.954,187.959,311.954z" fill="#FFFFFF"/>
	</g>
</g>
<g>
	<g>
		<path d="M187.959,407.94c-6.616,0-11.998,5.382-11.998,11.998c0,6.616,5.382,11.998,11.998,11.998    c6.616,0,11.999-5.382,11.999-11.998C199.957,413.322,194.574,407.94,187.959,407.94z M187.959,423.938    c-2.206,0-3.999-1.797-3.999-4s1.793-3.999,3.999-3.999c2.207,0,4,1.796,4,3.999S190.165,423.938,187.959,423.938z" fill="#FFFFFF"/>
	</g>
</g>
<g>
	<g>
		<path d="M187.959,363.947c-2.21,0-3.999,1.788-3.999,3.999v43.994c0,2.21,1.789,3.999,3.999,3.999c2.211,0,4-1.789,4-3.999    v-43.994C191.959,365.735,190.17,363.947,187.959,363.947z" fill="#FFFFFF"/>
	</g>
</g>
<g>
	<g>
		<path d="M187.959,423.938c-2.21,0-3.999,1.788-3.999,3.999v39.994c0,2.21,1.789,3.999,3.999,3.999c2.211,0,4-1.789,4-3.999    v-39.994C191.959,425.726,190.17,423.938,187.959,423.938z" fill="#FFFFFF"/>
	</g>
</g>
<g>
	<g>
		<path d="M195.957,383.943H179.96c-2.211,0-4,1.789-4,3.999c0,2.211,1.79,3.999,4,3.999h15.998c2.211,0,4-1.788,4-3.999    C199.957,385.732,198.168,383.943,195.957,383.943z" fill="#FFFFFF"/>
	</g>
</g>
<g>
	<g>
		<path d="M195.957,447.934H179.96c-2.211,0-4,1.789-4,3.999c0,2.211,1.79,4,4,4h15.998c2.211,0,4-1.789,4-4    C199.957,449.723,198.168,447.934,195.957,447.934z" fill="#FFFFFF"/>
	</g>
</g>
<g>
	<g>
		<path d="M202.784,353.119l-11.99-11.998c-0.75-0.75-1.766-1.172-2.828-1.172c-1.058,0-2.077,0.422-2.827,1.172l-12.006,11.998    c-0.749,0.75-1.171,1.766-1.171,2.828s0.421,2.078,1.171,2.828l11.999,11.998c0.781,0.781,1.804,1.172,2.827,1.172    c1.024,0,2.047-0.39,2.827-1.172l11.998-11.998C204.345,357.213,204.345,354.681,202.784,353.119z M187.959,362.29l-6.343-6.343    l6.351-6.343l6.335,6.343L187.959,362.29z" fill="#FFFFFF"/>
	</g>
</g>
<g>
	<g>
		<path d="M323.951,311.954c-2.219,0-4,1.788-4,3.999v27.996c0,2.211,1.781,3.999,4,3.999c2.202,0,3.999-1.788,3.999-3.999v-27.996    C327.949,313.742,326.152,311.954,323.951,311.954z" fill="#FFFFFF"/>
	</g>
</g>
<g>
	<g>
		<path d="M323.951,407.94c-6.625,0-11.999,5.382-11.999,11.998c0,6.616,5.374,11.998,11.999,11.998    c6.608,0,11.998-5.382,11.998-11.998C335.949,413.322,330.558,407.94,323.951,407.94z M323.951,423.938c-2.203,0-4-1.797-4-4    s1.797-3.999,4-3.999c2.202,0,3.999,1.796,3.999,3.999S326.152,423.938,323.951,423.938z" fill="#FFFFFF"/>
	</g>
</g>
<g>
	<g>
		<path d="M323.951,363.947c-2.219,0-4,1.788-4,3.999v43.994c0,2.21,1.781,3.999,4,3.999c2.202,0,3.999-1.789,3.999-3.999v-43.994    C327.949,365.735,326.152,363.947,323.951,363.947z" fill="#FFFFFF"/>
	</g>
</g>
<g>
	<g>
		<path d="M323.951,423.938c-2.219,0-4,1.788-4,3.999v39.994c0,2.21,1.781,3.999,4,3.999c2.202,0,3.999-1.789,3.999-3.999v-39.994    C327.949,425.726,326.152,423.938,323.951,423.938z" fill="#FFFFFF"/>
	</g>
</g>
<g>
	<g>
		<path d="M331.949,383.943h-15.997c-2.219,0-4,1.789-4,3.999c0,2.211,1.781,3.999,4,3.999h15.997c2.203,0,4-1.788,4-3.999    C335.949,385.732,334.152,383.943,331.949,383.943z" fill="#FFFFFF"/>
	</g>
</g>
<g>
	<g>
		<path d="M331.949,447.934h-15.997c-2.219,0-4,1.789-4,3.999c0,2.211,1.781,4,4,4h15.997c2.203,0,4-1.789,4-4    C335.949,449.723,334.152,447.934,331.949,447.934z" fill="#FFFFFF"/>
	</g>
</g>
<g>
	<g>
		<path d="M338.775,353.119l-11.998-11.998c-1.562-1.562-4.093-1.562-5.655,0l-11.998,11.998c-1.562,1.562-1.562,4.094,0,5.656    l11.998,11.998c0.781,0.781,1.797,1.172,2.828,1.172c1.015,0,2.046-0.39,2.827-1.172l11.998-11.998    C340.337,357.213,340.337,354.681,338.775,353.119z M323.952,362.29l-6.344-6.343l6.344-6.343l6.342,6.343L323.952,362.29z" fill="#FFFFFF"/>
	</g>
</g>
<g>
</g>
<g>
</g>
<g>
</g>
<g>
</g>
<g>
</g>
<g>
</g>
<g>
</g>
<g>
</g>
<g>
</g>
<g>
</g>
<g>
</g>
<g>
</g>
<g>
</g>
<g>
</g>
<g>
</g>
</svg>
