<?xml version="1.0" encoding="iso-8859-1"?>
<!-- Generator: Adobe Illustrator 19.0.0, SVG Export Plug-In . SVG Version: 6.00 Build 0)  -->
<svg xmlns="http://www.w3.org/2000/svg" xmlns:xlink="http://www.w3.org/1999/xlink" version="1.1" id="Capa_1" x="0px" y="0px" viewBox="0 0 512 512" style="enable-background:new 0 0 512 512;" xml:space="preserve" width="512px" height="512px">
<g>
	<g>
		<path d="M111.709,128.257h-40.08c-4.142,0-7.5,3.358-7.5,7.5c0,4.142,3.358,7.5,7.5,7.5h40.081c4.142,0,7.5-3.358,7.5-7.5    C119.21,131.615,115.852,128.257,111.709,128.257z" fill="#FFFFFF"/>
	</g>
</g>
<g>
	<g>
		<path d="M231.952,128.257h-8.016c-4.142,0-7.5,3.358-7.5,7.5c0,4.142,3.358,7.5,7.5,7.5h8.016c4.142,0,7.5-3.358,7.5-7.5    C239.452,131.615,236.094,128.257,231.952,128.257z" fill="#FFFFFF"/>
	</g>
</g>
<g>
	<g>
		<path d="M231.952,160.322h-8.016c-4.142,0-7.5,3.358-7.5,7.5c0,4.142,3.358,7.5,7.5,7.5h8.016c4.142,0,7.5-3.358,7.5-7.5    C239.452,163.68,236.094,160.322,231.952,160.322z" fill="#FFFFFF"/>
	</g>
</g>
<g>
	<g>
		<path d="M111.709,160.322h-40.08c-4.142,0-7.5,3.358-7.5,7.5c0,4.142,3.358,7.5,7.5,7.5h40.081c4.142,0,7.5-3.358,7.5-7.5    C119.21,163.68,115.852,160.322,111.709,160.322z" fill="#FFFFFF"/>
	</g>
</g>
<g>
	<g>
		<path d="M504.5,144.29H399.774v-2.754c0-6.69-4.264-12.606-10.61-14.72l-13.633-4.544c-4.042-1.347-8.25-2.03-12.511-2.03h-18.843    c-5.836,0-10.925,3.242-13.574,8.017h-19.007v-1.961c0-7.37-5.246-13.769-12.473-15.215l-27.607-5.522v-1.867    c0-8.556-6.96-15.516-15.516-15.516H55.597c-7.143,0-13.548,3.203-17.868,8.244l-19.904,4.976C7.33,104.02,0,113.408,0,124.226    v55.126c0,10.818,7.33,20.206,17.825,22.829l19.904,4.976c3.947,4.606,9.636,7.671,16.038,8.166L17.831,344.692h-2.315    C6.96,344.692,0,351.653,0,360.208v48.097c0,8.556,6.96,15.516,15.516,15.516h144.291c8.556,0,15.516-6.96,15.516-15.516v-48.097    c0-8.296-6.55-15.073-14.748-15.477c-0.253-0.026-0.509-0.039-0.768-0.039h-0.851c-12.797,0-24.577-5.843-32.321-16.031    c-7.743-10.188-10.22-23.102-6.795-35.431l8.259-29.731h31.708c2.363,0,4.587-1.113,6.003-3.004    c1.416-1.892,1.858-4.339,1.193-6.607c-0.023-0.08-2.312-8.223-1.366-17.207c1.135-10.788,6.235-17.754,15.551-21.279H256    c8.556,0,15.516-6.96,15.516-15.516v-1.867l27.608-5.522c7.227-1.446,12.473-7.845,12.473-15.215v-1.96h19.007    c2.649,4.774,7.738,8.016,13.574,8.016h18.843c4.259,0,8.468-0.683,12.51-2.03l13.633-4.544h0.001    c6.346-2.115,10.61-8.031,10.61-14.72v-2.754H504.5c4.142,0,7.5-3.358,7.5-7.5C512,147.649,508.642,144.29,504.5,144.29z     M32.064,190.283l-10.602-2.651c-3.804-0.953-6.462-4.356-6.462-8.278v-55.126c0-3.922,2.658-7.326,6.463-8.277l10.601-2.65    V190.283z M105.387,289.215c-4.69,16.885-1.298,34.571,9.306,48.523c1.914,2.519,4.014,4.836,6.264,6.954H71.629    c-4.142,0-7.5,3.358-7.5,7.5c0,4.142,3.358,7.5,7.5,7.5h87.327h0.851c0.285,0,0.516,0.231,0.516,0.516v48.097    c0,0.285-0.231,0.516-0.516,0.516H15.516c-0.285,0-0.516-0.231-0.516-0.516v-48.097c0-0.285,0.231-0.516,0.516-0.516h24.048    c4.142,0,7.5-3.358,7.5-7.5c0-4.142-3.358-7.5-7.5-7.5H33.4l35.914-129.29h56.577L105.387,289.215z M150.824,248.499h-18.558    l9.194-33.097h16.184c-3.755,5.487-6.124,12.117-6.924,19.708C150.203,240.021,150.4,244.677,150.824,248.499z M296.597,177.283    L296.597,177.283c0,0.245-0.174,0.458-0.415,0.506l-24.666,4.933v-22.916c0-4.142-3.358-7.5-7.5-7.5c-4.142,0-7.5,3.358-7.5,7.5    v40.081c0,0.285-0.231,0.516-0.516,0.516H55.597c-4.705,0-8.532-3.828-8.532-8.532v-80.162c0-4.705,3.828-8.532,8.532-8.532H256    c0.285,0,0.516,0.231,0.516,0.516v24.049c0,4.142,3.358,7.5,7.5,7.5c4.142,0,7.5-3.358,7.5-7.5v-6.884l24.666,4.933    c0.241,0.048,0.415,0.261,0.415,0.506V177.283z M328.661,160.321h-17.064v-17.064h17.064V160.321z M384.774,162.043    c0,0.223-0.142,0.419-0.353,0.49l-13.634,4.544c-2.51,0.836-5.123,1.26-7.768,1.26h-18.843c-0.285,0-0.516-0.231-0.516-0.516    v-32.064c0-0.285,0.231-0.517,0.516-0.517h18.843c2.645,0,5.258,0.424,7.767,1.261l13.635,4.544    c0.211,0.07,0.353,0.267,0.353,0.49V162.043z" fill="#FFFFFF"/>
	</g>
</g>
<g>
</g>
<g>
</g>
<g>
</g>
<g>
</g>
<g>
</g>
<g>
</g>
<g>
</g>
<g>
</g>
<g>
</g>
<g>
</g>
<g>
</g>
<g>
</g>
<g>
</g>
<g>
</g>
<g>
</g>
</svg>
