<?xml version="1.0" encoding="iso-8859-1"?>
<!-- Generator: Adobe Illustrator 19.0.0, SVG Export Plug-In . SVG Version: 6.00 Build 0)  -->
<svg xmlns="http://www.w3.org/2000/svg" xmlns:xlink="http://www.w3.org/1999/xlink" version="1.1" id="Capa_1" x="0px" y="0px" viewBox="0 0 512.001 512.001" style="enable-background:new 0 0 512.001 512.001;" xml:space="preserve" width="512px" height="512px">
<g>
	<g>
		<path d="M467.001,330.998c-19.554,0-36.227,12.542-42.418,29.999h-49.578c-8.284,0-14.999,6.716-14.999,14.999v44.998h-29.999    v-14.999c0-24.812-20.186-44.998-44.998-44.998H240.01v-14.999c0-57.895-47.101-104.996-104.996-104.996h-29.999    c-8.271,0-14.999-6.729-14.999-14.999s6.729-14.999,14.999-14.999c55.906,0,110.043,16.391,156.558,47.402l105.111,70.074    c6.893,4.594,16.204,2.733,20.8-4.16c19.926-29.889,21.467-67.836,4.62-98.968l8.188-16.384    c13.446-26.909,13.443-59.038-0.01-85.944l-8.182-16.364c16.849-31.136,15.309-69.084-4.617-98.969    c-4.595-6.892-13.909-8.755-20.8-4.16L256.917,76.705c-41.258,27.505-92.236,42.019-155.848,44.373    c-30.005,1.111-58.163,15.089-77.254,38.353C4.467,183.012-3.491,212.802,1.413,243.314c3.984,24.789,17.395,47.33,37.766,63.473    c19.702,15.613,44.497,24.212,69.816,24.212h26.02c8.271,0,14.999,6.729,14.999,14.999v14.999h-44.998    c-24.812,0-44.998,20.186-44.998,44.998v17.579c-17.458,6.192-29.999,22.864-29.999,42.418v29.999    c0,8.284,6.716,14.999,14.999,14.999h299.989c8.284,0,14.999-6.716,14.999-14.999v-29.999c0-5.258-0.915-10.305-2.58-14.999    h17.579c8.284,0,14.999-6.716,14.999-14.999v-44.998h34.579c6.192,17.457,22.864,29.999,42.418,29.999    c24.812,0,44.998-20.186,44.998-44.998S491.814,330.998,467.001,330.998z M135.014,300.999h-26.02    c-38.726,0-72.241-26.846-77.964-62.446c-3.521-21.906,2.153-43.247,15.977-60.091c13.643-16.623,33.753-26.612,55.174-27.405    c69.313-2.565,125.372-18.721,171.379-49.391l95.865-63.91c6.846,18.149,5.396,38.54-4.338,55.747l-84.822,28.272    c-7.859,2.62-12.106,11.114-9.487,18.973c2.096,6.286,7.947,10.261,14.228,10.261c1.572,0,3.172-0.249,4.745-0.773l77.657-25.884    l6.044,12.087c9.254,18.508,9.256,40.608,0.006,59.119l-6.048,12.103l-77.659-25.885c-7.861-2.618-16.353,1.628-18.973,9.487    c-2.62,7.859,1.628,16.353,9.487,18.973l84.826,28.274c9.731,17.204,11.181,37.594,4.334,55.744l-91.212-60.808    c-51.459-34.307-111.35-52.44-173.199-52.44c-24.812,0-44.998,20.186-44.998,44.998c0,24.812,20.186,44.998,44.998,44.998h29.999    c41.353,0,74.997,33.644,74.997,74.997v14.999h-29.999v-14.999C180.012,321.186,159.827,300.999,135.014,300.999z M90.015,405.995    L90.015,405.995c0-8.271,6.729-14.999,14.999-14.999h179.993c8.271,0,14.999,6.729,14.999,14.999v14.999H90.015V405.995z     M330.006,480.992H60.016v-14.999c0-8.271,6.729-14.999,14.999-14.999h239.991c8.272,0,14.999,6.73,14.999,14.999V480.992z     M467.001,390.996c-8.271,0-14.999-6.729-14.999-14.999s6.729-14.999,14.999-14.999s14.999,6.729,14.999,14.999    S475.273,390.996,467.001,390.996z" fill="#FFFFFF"/>
	</g>
</g>
<g>
</g>
<g>
</g>
<g>
</g>
<g>
</g>
<g>
</g>
<g>
</g>
<g>
</g>
<g>
</g>
<g>
</g>
<g>
</g>
<g>
</g>
<g>
</g>
<g>
</g>
<g>
</g>
<g>
</g>
</svg>
