<?xml version="1.0" encoding="iso-8859-1"?>
<!-- Generator: Adobe Illustrator 19.0.0, SVG Export Plug-In . SVG Version: 6.00 Build 0)  -->
<svg xmlns="http://www.w3.org/2000/svg" xmlns:xlink="http://www.w3.org/1999/xlink" version="1.1" id="Capa_1" x="0px" y="0px" viewBox="0 0 512.001 512.001" style="enable-background:new 0 0 512.001 512.001;" xml:space="preserve" width="512px" height="512px">
<g>
	<g>
		<path d="M487.961,119.304c-9.915-8.293-15.146-15.667-15.124-21.324c0.017-4.44,3.177-8.368,6.522-12.526    c3.89-4.834,8.299-10.313,6.945-17.356c-1.28-6.666-7.12-10.648-11.402-13.063C448.279,40.016,374.584,31.086,333.171,90.33    c-2.373,3.395-1.544,8.071,1.851,10.444c3.396,2.374,8.071,1.545,10.444-1.85c41.082-58.77,116.616-38.399,125.938-28.037    c-3.603,7.788-32.507,26.935,6.935,59.923c13.958,11.673,20.131,22.517,18.348,32.229c-2.665,14.509-22.019,24.833-33.034,28.646    c-5.013,1.734-6.404,0.825-12.434-8.098c-5.706-8.445-13.521-20.012-31.132-20.012c-10.859,0-19.805,3.606-26.587,10.717    c-15.583,16.34-14.143,46.694-13.669,56.669c0.009,0.183,0.023,0.365,0.046,0.547c0.11,0.916,0.167,1.818,0.167,2.683v116.686    c-13.278,12.107-27.801,22.374-42.861,30.576V332.52c0-14.494-11.791-26.285-26.284-26.285H153.313    c-14.494,0-26.286,11.792-26.286,26.285v48.934c-15.481-8.493-29.648-18.529-42.86-30.576V249.791c0-4.142-3.357-7.5-7.5-7.5    h-19.87c-8.415,0-15.261-6.847-15.261-15.263c0-8.414,6.846-15.26,15.261-15.26h106.945V258c0,12.594,10.245,22.84,22.839,22.84    h75.848c12.594,0,22.84-10.246,22.84-22.84v-46.232h5.309c0.439,0,0.879-0.039,1.313-0.116    c8.687-1.543,25.762-10.018,28.33-31.041c0.01-0.061,0.02-0.132,0.024-0.168c0.02-0.139,0.034-0.278,0.045-0.418    c1.871-23.732,6.656-44.424,14.221-61.501c1.678-3.787-0.032-8.217-3.819-9.895c-3.788-1.677-8.218,0.031-9.896,3.82    c-8.226,18.568-13.419,40.82-15.438,66.142c-0.002,0.008-0.003,0.016-0.004,0.022c-0.004,0.034-0.009,0.069-0.013,0.103    c-1.644,13.785-12.755,17.365-15.558,18.052c-4.871,0-113.281,0-118.54,0H56.797c-16.686,0-30.261,13.575-30.261,30.26    c0,16.687,13.575,30.263,30.261,30.263h12.37v78.528c-5.326-5.895-10.37-12.09-15.068-18.6    c-4.669-6.471-11.579-10.735-19.457-12.008c-7.872-1.273-15.775,0.598-22.244,5.266c-6.471,4.669-10.735,11.579-12.009,19.456    c-1.272,7.876,0.598,15.777,5.268,22.248c19.918,27.595,44.487,51.143,73.026,69.989c3.456,2.283,8.108,1.332,10.392-2.125    c2.282-3.457,1.331-8.109-2.126-10.391c-27.019-17.843-50.277-40.133-69.13-66.251c-2.324-3.221-3.255-7.154-2.621-11.075    c2.098-12.983,18.969-17.094,26.738-6.33c92.204,127.752,285.545,131.333,380.336,0.001c4.799-6.649,14.116-8.154,20.763-3.357    c6.648,4.798,8.153,14.112,3.355,20.761c-77.891,107.92-222.915,140.418-338.494,78.73c-3.655-1.95-8.197-0.567-10.147,3.086    c-1.949,3.655-0.568,8.198,3.087,10.148c0.687,0.366,1.374,0.729,2.064,1.091c80.53,42.135,177.701,42.227,258.412,0    c38.276-20.027,71.901-49.169,97.241-84.277c9.638-13.355,6.614-32.063-6.74-41.702c-13.355-9.637-32.063-6.613-41.703,6.741    c-4.698,6.509-9.741,12.703-15.066,18.597V234.192c0-1.373-0.081-2.785-0.242-4.2c-0.409-8.642-1.484-33.772,9.553-45.346    c3.896-4.084,9.041-6.07,15.732-6.07c9.178,0,13.086,5.095,18.703,13.409c5.273,7.804,13.246,19.597,29.769,13.875    c17.495-6.056,39.223-20.194,42.881-40.111C514.27,150.328,506.372,134.701,487.961,119.304z M178.741,211.769h91.527v46.232    c0,4.323-3.517,7.84-7.84,7.84H186.58c-4.322,0-7.839-3.517-7.839-7.84V211.769z M322.181,388.907    c-55.711,25.144-120.874,26.754-180.154,0.001v-56.387c0-6.223,5.063-11.285,11.286-11.285h157.584    c6.222,0,11.284,5.063,11.284,11.285V388.907z" fill="#FFFFFF"/>
	</g>
</g>
<g>
	<g>
		<circle cx="441.179" cy="126.02" r="9.587" fill="#FFFFFF"/>
	</g>
</g>
<g>
</g>
<g>
</g>
<g>
</g>
<g>
</g>
<g>
</g>
<g>
</g>
<g>
</g>
<g>
</g>
<g>
</g>
<g>
</g>
<g>
</g>
<g>
</g>
<g>
</g>
<g>
</g>
<g>
</g>
</svg>
