<?xml version="1.0" encoding="iso-8859-1"?>
<!-- Generator: Adobe Illustrator 19.0.0, SVG Export Plug-In . SVG Version: 6.00 Build 0)  -->
<svg xmlns="http://www.w3.org/2000/svg" xmlns:xlink="http://www.w3.org/1999/xlink" version="1.1" id="Capa_1" x="0px" y="0px" viewBox="0 0 512 512" style="enable-background:new 0 0 512 512;" xml:space="preserve" width="512px" height="512px">
<g>
	<g>
		<path d="M430.52,321.683c-25.831-23.668-28.62-34.582-28.62-38.176c0-41.434-9.061-126.623-29.129-170.033    c-7.213-15.602-26.281-21.737-41.322-13.49c-56.388,30.925-89.703,23.096-104.545,15.675    c-12.613-6.307-25.343-16.739-37.837-31.006c-2.73-3.116-7.469-3.431-10.585-0.702c-3.117,2.73-3.431,7.469-0.702,10.585    c13.783,15.741,28.053,27.361,42.416,34.543c40.691,20.347,91.69-1.252,118.468-15.939c7.495-4.113,16.937-1.052,20.489,6.629    c3.719,8.045,6.986,17.465,9.846,27.673l-65.923,13.723c-4.056,0.845-6.659,4.817-5.815,8.873    c0.737,3.541,3.857,5.975,7.337,5.975c1.463,0-2.305,0.583,68.101-14.016c1.512,6.555,2.884,13.3,4.122,20.112l-63.219,13.161    c-4.056,0.845-6.659,4.817-5.815,8.873c0.737,3.541,3.857,5.975,7.337,5.975c1.464,0-2,0.52,64.177-13.2    c1.057,6.87,1.988,13.709,2.802,20.387l-57.975,12.07c-4.056,0.845-6.66,4.817-5.815,8.873c0.737,3.541,3.857,5.975,7.337,5.975    c1.436,0-1.661,0.449,58.119-11.94c0.733,7.274,1.323,14.206,1.785,20.598l-50.9,10.596c-4.056,0.845-6.659,4.817-5.815,8.873    c0.845,4.057,4.818,6.661,8.874,5.815l48.754-10.149c0.295,6.24,0.431,11.513,0.431,15.49c0,12.658,10.64,28.303,33.487,49.237    c3.062,2.805,7.806,2.587,10.599-0.463C433.782,329.226,433.575,324.481,430.52,321.683z" fill="#FFFFFF"/>
	</g>
</g>
<g>
	<g>
		<path d="M481.263,361.846c-8.529-6.057-16.66-12.088-24.166-17.924c-3.27-2.543-7.983-1.952-10.526,1.317    c-2.543,3.271-1.953,7.983,1.317,10.526c25.289,19.663,33.957,22.338,42.824,38.842c4.804,8.944,6.879,18.939,6.17,28.621    c-67.969,32.784-193.338-39.841-238.294-106.776c-22.18-33.026-46.421-60.892-74.108-85.193    c-29.486-25.882-57.461-43.258-84.545-61.68c-28.706-19.525-45.397-46.454-47.599-56.779l71.344-77.885    c2.115-2.31,5.102-3.409,8.208-3.004c7.975,1.025,5.688,5.67,24.196,33.841c2.276,3.462,6.927,4.423,10.389,2.148    c3.463-2.275,4.425-6.927,2.149-10.389c-5.684-8.649-11.146-17.926-16.234-27.572c-7.93-15.035-28.344-17.635-39.772-5.159    C90.266,49.182,31.634,113.19,9.722,137.11c-9.644,10.527-12.354,25.839-7.045,38.986    c31.755,78.635,115.491,72.867,199.246,197.57c58.753,87.477,222.489,170.6,295.198,86.623    C521.254,432.535,516.075,386.568,481.263,361.846z M480.049,456.458c-83.88,12.709-197.45-55.818-243.88-124.95    c-17.707-26.362-36.493-48.905-57.433-68.915c-2.996-2.863-7.744-2.757-10.606,0.24c-2.863,2.996-2.755,7.744,0.241,10.606    c20.147,19.252,38.25,40.983,55.344,66.434c42.386,63.111,144.299,131.955,231.384,133.204    C382.337,504.66,259.002,431.741,214.378,365.3C130.155,239.902,45.5,242.072,16.589,170.477    c-5.746-14.23,4.962-24.013,5.024-24.135c28.677,50.146,68.987,63.184,120.737,104.432c3.24,2.583,7.96,2.049,10.541-1.19    c2.583-3.24,2.049-7.96-1.19-10.542c-53.964-43.013-93.416-54.719-119.381-104.39l8.702-9.5    c34.893,73.565,118.589,70.843,205.11,199.666c46.981,69.947,169.828,141.109,245.827,116.521    C489.085,447.088,484.715,452.016,480.049,456.458z" fill="#FFFFFF"/>
	</g>
</g>
<g>
</g>
<g>
</g>
<g>
</g>
<g>
</g>
<g>
</g>
<g>
</g>
<g>
</g>
<g>
</g>
<g>
</g>
<g>
</g>
<g>
</g>
<g>
</g>
<g>
</g>
<g>
</g>
<g>
</g>
</svg>
