<?xml version="1.0" encoding="iso-8859-1"?>
<!-- Generator: Adobe Illustrator 19.0.0, SVG Export Plug-In . SVG Version: 6.00 Build 0)  -->
<svg xmlns="http://www.w3.org/2000/svg" xmlns:xlink="http://www.w3.org/1999/xlink" version="1.1" id="Capa_1" x="0px" y="0px" viewBox="0 0 512.001 512.001" style="enable-background:new 0 0 512.001 512.001;" xml:space="preserve" width="512px" height="512px">
<g>
	<g>
		<path d="M422.849,361.46l-10.242-88.386c-0.876-7.563-7.282-13.269-14.895-13.269H287.176v-26.337    c0-35.036-20.11-66.721-51.013-81.914V14.995C236.163,6.714,229.449,0,221.168,0h-66.47c-8.281,0-14.995,6.714-14.995,14.995    v136.558c-30.904,15.193-51.014,46.88-51.014,81.914v263.538c0,8.281,6.714,14.995,14.995,14.995h168.498    c8.281,0,14.995-6.714,14.995-14.995v-61.763c7.611,2.778,15.715,4.267,23.981,4.267h6.087v42.502h-5.298    c-8.281,0-14.995,6.714-14.995,14.995s6.714,14.995,14.995,14.995h40.586c8.281,0,14.995-6.714,14.995-14.995    s-6.714-14.995-14.995-14.995h-5.297v-42.503h6.087c19.945,0,38.994-8.542,52.262-23.434    C418.852,401.18,425.145,381.273,422.849,361.46z M169.692,29.99h36.48v32.216h-36.48V29.99z M118.678,253.524h65.477v47.097    c-0.001,39.248-28.247,72.025-65.477,79.07V253.524z M257.186,263.283c-2.871,2.389-4.855,5.83-5.314,9.791L241.63,361.46    c-2.193,18.934,3.472,37.941,15.556,52.588v67.962H118.678v-71.949c53.841-7.34,95.467-53.617,95.467-109.44V238.53    c0-8.281-6.714-14.995-14.995-14.995h-79.655c3.592-21.823,18.83-40.402,40.168-47.891c6.008-2.108,10.029-7.781,10.029-14.148    V92.196h36.48v69.299c0,6.367,4.021,12.04,10.029,14.148c24.514,8.604,40.986,31.843,40.986,57.824V263.283z M280.125,289.794    h104.229l2.078,17.931H278.047L280.125,289.794z M383.191,396.124c-7.583,8.512-18.47,13.394-29.868,13.394h-42.165    c-11.399,0-22.286-4.882-29.869-13.394c-7.583-8.512-11.179-19.889-9.867-31.212l3.151-27.196h115.335l3.151,27.196    C394.371,376.235,390.774,387.611,383.191,396.124z" fill="#FFFFFF"/>
	</g>
</g>
<g>
</g>
<g>
</g>
<g>
</g>
<g>
</g>
<g>
</g>
<g>
</g>
<g>
</g>
<g>
</g>
<g>
</g>
<g>
</g>
<g>
</g>
<g>
</g>
<g>
</g>
<g>
</g>
<g>
</g>
</svg>
