<?xml version="1.0"?>
<svg xmlns="http://www.w3.org/2000/svg" height="512px" viewBox="-21 0 491 491.312" width="512px" class=""><g><path d="m216.15625 171.3125h16v16h-16zm0 0" data-original="#000000" class="active-path" data-old_color="#ffffff" fill="#ffffff"/><path d="m127.992188 230.460938 11.3125-11.316407 11.316406 11.316407-11.316406 11.3125zm0 0" data-original="#000000" class="active-path" data-old_color="#ffffff" fill="#ffffff"/><path d="m297.695312 230.460938 11.3125-11.3125 11.316407 11.3125-11.316407 11.3125zm0 0" data-original="#000000" class="active-path" data-old_color="#ffffff" fill="#ffffff"/><path d="m408.15625 115.3125h-144v-16h59.3125l-99.3125-99.3125-99.3125 99.3125h59.3125v16h-144c-22.054688 0-40 17.945312-40 40v248c0 22.054688 17.945312 40 40 40h72v32h-32v16h288v-16h-32v-32h72c22.054688 0 40-17.945312 40-40v-248c0-22.054688-17.945312-40-40-40zm-360 264v-56h352v56zm53.886719-123.886719c-2.503907 5.117188-4.703125 10.4375-6.550781 15.886719l-31.335938 5.222656v30.777344h-16v-144h135.886719l-3.878907 23.335938c-5.464843 1.855468-10.785156 4.054687-15.894531 6.558593l-25.832031-18.445312-54.832031 54.839843zm298.113281 51.886719h-16v-30.777344l-31.335938-5.222656c-1.847656-5.449219-4.046874-10.769531-6.550781-15.886719l18.445313-25.832031-54.832032-54.839844-25.832031 18.445313c-5.117187-2.503907-10.4375-4.695313-15.894531-6.558594l-3.886719-23.328125h135.886719zm-236.6875-224 60.6875-60.6875 60.6875 60.6875h-36.6875v80l5.832031 35.679688 4.769531 1.433593c7.757813 2.335938 15.214844 5.414063 22.175782 9.160157l4.382812 2.359374 22.824219-16.304687 35.679687 35.671875-16.304687 22.824219 2.359375 4.382812c3.761719 6.984375 6.832031 14.441407 9.160156 22.167969l1.441406 4.769531 27.679688 4.632813v17.222656h-56.410156c-4.054688-44.785156-41.765625-80-87.589844-80-20.25 0-40.023438 7.054688-55.6875 19.871094l10.144531 12.382812c12.796875-10.476562 28.984375-16.253906 45.542969-16.253906 37 0 67.535156 28.054688 71.527344 64h-143.023438c1.542969-13.710938 6.96875-26.816406 15.75-37.550781l-12.375-10.136719c-11.128906 13.589844-17.894531 30.277344-19.496094 47.6875h-56.382812v-17.222656l27.6875-4.617188 1.441406-4.769531c2.320313-7.726563 5.398438-15.191406 9.160156-22.167969l2.359376-4.382812-16.304688-22.824219 35.679688-35.671875 22.824218 16.304688 4.382813-2.359376c6.960937-3.746093 14.425781-6.832031 22.175781-9.160156l4.769531-1.433594 5.726563-34.367187.097656-81.328125zm-147.3125 72c0-13.234375 10.769531-24 24-24h144v16h-136c-8.824219 0-16 7.175781-16 16v216h-16zm304 320h-192v-32h192zm112-72c0 13.230469-10.769531 24-24 24h-368c-13.230469 0-24-10.769531-24-24v-8h416zm-16-24v-216c0-8.824219-7.175781-16-16-16h-136v-16h144c13.230469 0 24 10.765625 24 24v224zm0 0" data-original="#000000" class="active-path" data-old_color="#ffffff" fill="#ffffff"/><path d="m368.15625 347.3125h16v16h-16zm0 0" data-original="#000000" class="active-path" data-old_color="#ffffff" fill="#ffffff"/><path d="m336.15625 347.3125h16v16h-16zm0 0" data-original="#000000" class="active-path" data-old_color="#ffffff" fill="#ffffff"/><path d="m304.15625 347.3125h16v16h-16zm0 0" data-original="#000000" class="active-path" data-old_color="#ffffff" fill="#ffffff"/><path d="m216.15625 83.3125h16v72h-16zm0 0" data-original="#000000" class="active-path" data-old_color="#ffffff" fill="#ffffff"/></g> </svg>
